<mxfile host="app.diagrams.net" agent="Mozilla/5.0 (X11; Linux x86_64; rv:133.0) Gecko/20100101 Firefox/133.0" version="25.0.3">
  <diagram name="Page-1" id="YHtooVwAK9Q4uxqaS1Rl">
    <mxGraphModel dx="2697" dy="778" grid="1" gridSize="10" guides="1" tooltips="1" connect="1" arrows="1" fold="1" page="1" pageScale="1" pageWidth="850" pageHeight="1100" math="0" shadow="0">
      <root>
        <mxCell id="0" />
        <mxCell id="1" parent="0" />
        <mxCell id="t5KGoqvXRK17G3cKC2Aa-1" value="&lt;div&gt;Légforgalom&lt;/div&gt;" style="ellipse;whiteSpace=wrap;html=1;fillColor=#dae8fc;strokeColor=#6c8ebf;" vertex="1" parent="1">
          <mxGeometry x="340" y="20" width="120" height="80" as="geometry" />
        </mxCell>
        <mxCell id="t5KGoqvXRK17G3cKC2Aa-2" value="Járat" style="ellipse;whiteSpace=wrap;html=1;fillColor=#dae8fc;strokeColor=#6c8ebf;" vertex="1" parent="1">
          <mxGeometry x="340" y="180" width="120" height="80" as="geometry" />
        </mxCell>
        <mxCell id="t5KGoqvXRK17G3cKC2Aa-4" value="Indulás" style="ellipse;whiteSpace=wrap;html=1;" vertex="1" parent="1">
          <mxGeometry x="275" y="320" width="120" height="80" as="geometry" />
        </mxCell>
        <mxCell id="t5KGoqvXRK17G3cKC2Aa-5" value="Érkezés" style="ellipse;whiteSpace=wrap;html=1;" vertex="1" parent="1">
          <mxGeometry x="405" y="320" width="120" height="80" as="geometry" />
        </mxCell>
        <mxCell id="t5KGoqvXRK17G3cKC2Aa-6" value="Hossz" style="ellipse;whiteSpace=wrap;html=1;" vertex="1" parent="1">
          <mxGeometry x="535" y="320" width="120" height="80" as="geometry" />
        </mxCell>
        <mxCell id="t5KGoqvXRK17G3cKC2Aa-8" value="" style="rounded=0;whiteSpace=wrap;html=1;direction=south;" vertex="1" parent="1">
          <mxGeometry x="305" y="420" width="60" height="120" as="geometry" />
        </mxCell>
        <mxCell id="t5KGoqvXRK17G3cKC2Aa-9" value="" style="rounded=0;whiteSpace=wrap;html=1;direction=south;" vertex="1" parent="1">
          <mxGeometry x="435" y="420" width="60" height="120" as="geometry" />
        </mxCell>
        <mxCell id="t5KGoqvXRK17G3cKC2Aa-10" value="" style="rounded=0;whiteSpace=wrap;html=1;direction=south;" vertex="1" parent="1">
          <mxGeometry x="565" y="420" width="60" height="120" as="geometry" />
        </mxCell>
        <mxCell id="t5KGoqvXRK17G3cKC2Aa-13" value="" style="endArrow=none;html=1;rounded=0;entryX=0;entryY=0.5;entryDx=0;entryDy=0;exitX=0.5;exitY=1;exitDx=0;exitDy=0;" edge="1" parent="1" source="t5KGoqvXRK17G3cKC2Aa-4" target="t5KGoqvXRK17G3cKC2Aa-8">
          <mxGeometry width="50" height="50" relative="1" as="geometry">
            <mxPoint x="295" y="350" as="sourcePoint" />
            <mxPoint x="345" y="300" as="targetPoint" />
          </mxGeometry>
        </mxCell>
        <mxCell id="t5KGoqvXRK17G3cKC2Aa-14" value="" style="endArrow=none;html=1;rounded=0;entryX=0;entryY=0.5;entryDx=0;entryDy=0;exitX=0.5;exitY=1;exitDx=0;exitDy=0;" edge="1" parent="1" source="t5KGoqvXRK17G3cKC2Aa-5" target="t5KGoqvXRK17G3cKC2Aa-9">
          <mxGeometry width="50" height="50" relative="1" as="geometry">
            <mxPoint x="295" y="350" as="sourcePoint" />
            <mxPoint x="345" y="300" as="targetPoint" />
          </mxGeometry>
        </mxCell>
        <mxCell id="t5KGoqvXRK17G3cKC2Aa-15" value="" style="endArrow=none;html=1;rounded=0;entryX=0.5;entryY=1;entryDx=0;entryDy=0;exitX=0;exitY=0.5;exitDx=0;exitDy=0;" edge="1" parent="1" source="t5KGoqvXRK17G3cKC2Aa-10" target="t5KGoqvXRK17G3cKC2Aa-6">
          <mxGeometry width="50" height="50" relative="1" as="geometry">
            <mxPoint x="295" y="350" as="sourcePoint" />
            <mxPoint x="345" y="300" as="targetPoint" />
          </mxGeometry>
        </mxCell>
        <mxCell id="t5KGoqvXRK17G3cKC2Aa-16" value="Járat azonosító" style="rhombus;whiteSpace=wrap;html=1;fontStyle=4" vertex="1" parent="1">
          <mxGeometry x="180" y="320" width="80" height="80" as="geometry" />
        </mxCell>
        <mxCell id="t5KGoqvXRK17G3cKC2Aa-17" value="" style="endArrow=none;html=1;rounded=0;entryX=0.5;entryY=1;entryDx=0;entryDy=0;exitX=0.5;exitY=0;exitDx=0;exitDy=0;" edge="1" parent="1" source="t5KGoqvXRK17G3cKC2Aa-4" target="t5KGoqvXRK17G3cKC2Aa-2">
          <mxGeometry width="50" height="50" relative="1" as="geometry">
            <mxPoint x="360" y="400" as="sourcePoint" />
            <mxPoint x="410" y="350" as="targetPoint" />
          </mxGeometry>
        </mxCell>
        <mxCell id="t5KGoqvXRK17G3cKC2Aa-18" value="" style="endArrow=none;html=1;rounded=0;entryX=0.5;entryY=1;entryDx=0;entryDy=0;exitX=0.5;exitY=0;exitDx=0;exitDy=0;" edge="1" parent="1" source="t5KGoqvXRK17G3cKC2Aa-16" target="t5KGoqvXRK17G3cKC2Aa-2">
          <mxGeometry width="50" height="50" relative="1" as="geometry">
            <mxPoint x="360" y="400" as="sourcePoint" />
            <mxPoint x="410" y="350" as="targetPoint" />
          </mxGeometry>
        </mxCell>
        <mxCell id="t5KGoqvXRK17G3cKC2Aa-19" value="" style="endArrow=none;html=1;rounded=0;entryX=0.5;entryY=1;entryDx=0;entryDy=0;exitX=0.5;exitY=0;exitDx=0;exitDy=0;" edge="1" parent="1" source="t5KGoqvXRK17G3cKC2Aa-5" target="t5KGoqvXRK17G3cKC2Aa-2">
          <mxGeometry width="50" height="50" relative="1" as="geometry">
            <mxPoint x="360" y="400" as="sourcePoint" />
            <mxPoint x="410" y="350" as="targetPoint" />
          </mxGeometry>
        </mxCell>
        <mxCell id="t5KGoqvXRK17G3cKC2Aa-20" value="" style="endArrow=none;html=1;rounded=0;entryX=0.5;entryY=1;entryDx=0;entryDy=0;exitX=0.5;exitY=0;exitDx=0;exitDy=0;" edge="1" parent="1" source="t5KGoqvXRK17G3cKC2Aa-6" target="t5KGoqvXRK17G3cKC2Aa-2">
          <mxGeometry width="50" height="50" relative="1" as="geometry">
            <mxPoint x="360" y="400" as="sourcePoint" />
            <mxPoint x="410" y="350" as="targetPoint" />
          </mxGeometry>
        </mxCell>
        <mxCell id="t5KGoqvXRK17G3cKC2Aa-21" value="Tartalmaz" style="ellipse;whiteSpace=wrap;html=1;fillColor=#dae8fc;strokeColor=#6c8ebf;" vertex="1" parent="1">
          <mxGeometry x="800" y="180" width="120" height="80" as="geometry" />
        </mxCell>
        <mxCell id="t5KGoqvXRK17G3cKC2Aa-28" value="Start" style="rhombus;whiteSpace=wrap;html=1;" vertex="1" parent="1">
          <mxGeometry x="820" y="320" width="80" height="80" as="geometry" />
        </mxCell>
        <mxCell id="t5KGoqvXRK17G3cKC2Aa-29" value="Cél" style="rhombus;whiteSpace=wrap;html=1;" vertex="1" parent="1">
          <mxGeometry x="920" y="320" width="80" height="80" as="geometry" />
        </mxCell>
        <mxCell id="t5KGoqvXRK17G3cKC2Aa-30" value="" style="endArrow=none;html=1;rounded=0;entryX=0.5;entryY=1;entryDx=0;entryDy=0;exitX=0.5;exitY=0;exitDx=0;exitDy=0;" edge="1" parent="1" source="t5KGoqvXRK17G3cKC2Aa-28" target="t5KGoqvXRK17G3cKC2Aa-21">
          <mxGeometry width="50" height="50" relative="1" as="geometry">
            <mxPoint x="710" y="400" as="sourcePoint" />
            <mxPoint x="760" y="350" as="targetPoint" />
          </mxGeometry>
        </mxCell>
        <mxCell id="t5KGoqvXRK17G3cKC2Aa-31" value="" style="endArrow=none;html=1;rounded=0;entryX=0.5;entryY=1;entryDx=0;entryDy=0;exitX=0.5;exitY=0;exitDx=0;exitDy=0;" edge="1" parent="1" source="t5KGoqvXRK17G3cKC2Aa-29" target="t5KGoqvXRK17G3cKC2Aa-21">
          <mxGeometry width="50" height="50" relative="1" as="geometry">
            <mxPoint x="710" y="400" as="sourcePoint" />
            <mxPoint x="760" y="350" as="targetPoint" />
          </mxGeometry>
        </mxCell>
        <mxCell id="t5KGoqvXRK17G3cKC2Aa-32" value="Járat" style="rhombus;whiteSpace=wrap;html=1;" vertex="1" parent="1">
          <mxGeometry x="720" y="320" width="80" height="80" as="geometry" />
        </mxCell>
        <mxCell id="t5KGoqvXRK17G3cKC2Aa-33" value="" style="endArrow=none;html=1;rounded=0;entryX=0.5;entryY=1;entryDx=0;entryDy=0;exitX=0.5;exitY=0;exitDx=0;exitDy=0;" edge="1" parent="1" source="t5KGoqvXRK17G3cKC2Aa-32" target="t5KGoqvXRK17G3cKC2Aa-21">
          <mxGeometry width="50" height="50" relative="1" as="geometry">
            <mxPoint x="710" y="400" as="sourcePoint" />
            <mxPoint x="760" y="350" as="targetPoint" />
          </mxGeometry>
        </mxCell>
        <mxCell id="t5KGoqvXRK17G3cKC2Aa-34" value="Reptér" style="ellipse;whiteSpace=wrap;html=1;fillColor=#dae8fc;strokeColor=#6c8ebf;" vertex="1" parent="1">
          <mxGeometry x="1190" y="180" width="120" height="80" as="geometry" />
        </mxCell>
        <mxCell id="t5KGoqvXRK17G3cKC2Aa-35" value="Ország" style="ellipse;whiteSpace=wrap;html=1;" vertex="1" parent="1">
          <mxGeometry x="1125" y="320" width="120" height="80" as="geometry" />
        </mxCell>
        <mxCell id="t5KGoqvXRK17G3cKC2Aa-36" value="Város" style="ellipse;whiteSpace=wrap;html=1;" vertex="1" parent="1">
          <mxGeometry x="1255" y="320" width="120" height="80" as="geometry" />
        </mxCell>
        <mxCell id="t5KGoqvXRK17G3cKC2Aa-37" value="Légiforgalom irányítás" style="ellipse;whiteSpace=wrap;html=1;" vertex="1" parent="1">
          <mxGeometry x="1385" y="320" width="120" height="80" as="geometry" />
        </mxCell>
        <mxCell id="t5KGoqvXRK17G3cKC2Aa-38" value="" style="rounded=0;whiteSpace=wrap;html=1;direction=south;" vertex="1" parent="1">
          <mxGeometry x="1155" y="420" width="60" height="120" as="geometry" />
        </mxCell>
        <mxCell id="t5KGoqvXRK17G3cKC2Aa-39" value="" style="rounded=0;whiteSpace=wrap;html=1;direction=south;" vertex="1" parent="1">
          <mxGeometry x="1285" y="420" width="60" height="120" as="geometry" />
        </mxCell>
        <mxCell id="t5KGoqvXRK17G3cKC2Aa-40" value="" style="rounded=0;whiteSpace=wrap;html=1;direction=south;" vertex="1" parent="1">
          <mxGeometry x="1415" y="420" width="60" height="120" as="geometry" />
        </mxCell>
        <mxCell id="t5KGoqvXRK17G3cKC2Aa-41" value="" style="endArrow=none;html=1;rounded=0;entryX=0;entryY=0.5;entryDx=0;entryDy=0;exitX=0.5;exitY=1;exitDx=0;exitDy=0;" edge="1" parent="1" source="t5KGoqvXRK17G3cKC2Aa-35" target="t5KGoqvXRK17G3cKC2Aa-38">
          <mxGeometry width="50" height="50" relative="1" as="geometry">
            <mxPoint x="1145" y="350" as="sourcePoint" />
            <mxPoint x="1195" y="300" as="targetPoint" />
          </mxGeometry>
        </mxCell>
        <mxCell id="t5KGoqvXRK17G3cKC2Aa-42" value="" style="endArrow=none;html=1;rounded=0;entryX=0;entryY=0.5;entryDx=0;entryDy=0;exitX=0.5;exitY=1;exitDx=0;exitDy=0;" edge="1" parent="1" source="t5KGoqvXRK17G3cKC2Aa-36" target="t5KGoqvXRK17G3cKC2Aa-39">
          <mxGeometry width="50" height="50" relative="1" as="geometry">
            <mxPoint x="1145" y="350" as="sourcePoint" />
            <mxPoint x="1195" y="300" as="targetPoint" />
          </mxGeometry>
        </mxCell>
        <mxCell id="t5KGoqvXRK17G3cKC2Aa-43" value="" style="endArrow=none;html=1;rounded=0;entryX=0.5;entryY=1;entryDx=0;entryDy=0;exitX=0;exitY=0.5;exitDx=0;exitDy=0;" edge="1" parent="1" source="t5KGoqvXRK17G3cKC2Aa-40" target="t5KGoqvXRK17G3cKC2Aa-37">
          <mxGeometry width="50" height="50" relative="1" as="geometry">
            <mxPoint x="1145" y="350" as="sourcePoint" />
            <mxPoint x="1195" y="300" as="targetPoint" />
          </mxGeometry>
        </mxCell>
        <mxCell id="t5KGoqvXRK17G3cKC2Aa-44" value="IATA" style="rhombus;whiteSpace=wrap;html=1;fontStyle=4" vertex="1" parent="1">
          <mxGeometry x="1030" y="320" width="80" height="80" as="geometry" />
        </mxCell>
        <mxCell id="t5KGoqvXRK17G3cKC2Aa-45" value="" style="endArrow=none;html=1;rounded=0;entryX=0.5;entryY=1;entryDx=0;entryDy=0;exitX=0.5;exitY=0;exitDx=0;exitDy=0;" edge="1" parent="1" source="t5KGoqvXRK17G3cKC2Aa-44" target="t5KGoqvXRK17G3cKC2Aa-34">
          <mxGeometry width="50" height="50" relative="1" as="geometry">
            <mxPoint x="1200" y="400" as="sourcePoint" />
            <mxPoint x="1250" y="350" as="targetPoint" />
          </mxGeometry>
        </mxCell>
        <mxCell id="t5KGoqvXRK17G3cKC2Aa-46" value="" style="endArrow=none;html=1;rounded=0;entryX=0.5;entryY=1;entryDx=0;entryDy=0;exitX=0.5;exitY=0;exitDx=0;exitDy=0;" edge="1" parent="1" source="t5KGoqvXRK17G3cKC2Aa-35" target="t5KGoqvXRK17G3cKC2Aa-34">
          <mxGeometry width="50" height="50" relative="1" as="geometry">
            <mxPoint x="1200" y="400" as="sourcePoint" />
            <mxPoint x="1250" y="350" as="targetPoint" />
          </mxGeometry>
        </mxCell>
        <mxCell id="t5KGoqvXRK17G3cKC2Aa-47" value="" style="endArrow=none;html=1;rounded=0;entryX=0.5;entryY=1;entryDx=0;entryDy=0;exitX=0.5;exitY=0;exitDx=0;exitDy=0;" edge="1" parent="1" source="t5KGoqvXRK17G3cKC2Aa-36" target="t5KGoqvXRK17G3cKC2Aa-34">
          <mxGeometry width="50" height="50" relative="1" as="geometry">
            <mxPoint x="1090" y="400" as="sourcePoint" />
            <mxPoint x="1140" y="350" as="targetPoint" />
          </mxGeometry>
        </mxCell>
        <mxCell id="t5KGoqvXRK17G3cKC2Aa-48" value="" style="endArrow=none;html=1;rounded=0;entryX=0.5;entryY=1;entryDx=0;entryDy=0;exitX=0.5;exitY=0;exitDx=0;exitDy=0;" edge="1" parent="1" source="t5KGoqvXRK17G3cKC2Aa-37" target="t5KGoqvXRK17G3cKC2Aa-34">
          <mxGeometry width="50" height="50" relative="1" as="geometry">
            <mxPoint x="1090" y="400" as="sourcePoint" />
            <mxPoint x="1140" y="350" as="targetPoint" />
          </mxGeometry>
        </mxCell>
        <mxCell id="t5KGoqvXRK17G3cKC2Aa-49" value="Kifutópálya" style="ellipse;whiteSpace=wrap;html=1;fillColor=#dae8fc;strokeColor=#6c8ebf;" vertex="1" parent="1">
          <mxGeometry x="1680" y="180" width="120" height="80" as="geometry" />
        </mxCell>
        <mxCell id="t5KGoqvXRK17G3cKC2Aa-50" value="&lt;u&gt;Kifutópálya azonosító&lt;/u&gt;" style="rhombus;whiteSpace=wrap;html=1;" vertex="1" parent="1">
          <mxGeometry x="1700" y="320" width="80" height="80" as="geometry" />
        </mxCell>
        <mxCell id="t5KGoqvXRK17G3cKC2Aa-52" value="Meredkség" style="ellipse;whiteSpace=wrap;html=1;" vertex="1" parent="1">
          <mxGeometry x="1610" y="440" width="120" height="80" as="geometry" />
        </mxCell>
        <mxCell id="t5KGoqvXRK17G3cKC2Aa-53" value="Hossz" style="ellipse;whiteSpace=wrap;html=1;" vertex="1" parent="1">
          <mxGeometry x="1740" y="440" width="120" height="80" as="geometry" />
        </mxCell>
        <mxCell id="t5KGoqvXRK17G3cKC2Aa-54" value="Irány" style="ellipse;whiteSpace=wrap;html=1;" vertex="1" parent="1">
          <mxGeometry x="1870" y="440" width="120" height="80" as="geometry" />
        </mxCell>
        <mxCell id="t5KGoqvXRK17G3cKC2Aa-55" value="Aszfaltozott" style="ellipse;whiteSpace=wrap;html=1;" vertex="1" parent="1">
          <mxGeometry x="2010" y="440" width="120" height="80" as="geometry" />
        </mxCell>
        <mxCell id="t5KGoqvXRK17G3cKC2Aa-56" value="" style="rounded=0;whiteSpace=wrap;html=1;direction=south;" vertex="1" parent="1">
          <mxGeometry x="1640" y="540" width="60" height="120" as="geometry" />
        </mxCell>
        <mxCell id="t5KGoqvXRK17G3cKC2Aa-57" value="" style="rounded=0;whiteSpace=wrap;html=1;direction=south;" vertex="1" parent="1">
          <mxGeometry x="1770" y="540" width="60" height="120" as="geometry" />
        </mxCell>
        <mxCell id="t5KGoqvXRK17G3cKC2Aa-58" value="" style="rounded=0;whiteSpace=wrap;html=1;direction=south;" vertex="1" parent="1">
          <mxGeometry x="1900" y="540" width="60" height="120" as="geometry" />
        </mxCell>
        <mxCell id="t5KGoqvXRK17G3cKC2Aa-59" value="" style="rounded=0;whiteSpace=wrap;html=1;direction=south;" vertex="1" parent="1">
          <mxGeometry x="2040" y="540" width="60" height="120" as="geometry" />
        </mxCell>
        <mxCell id="t5KGoqvXRK17G3cKC2Aa-60" value="" style="endArrow=none;html=1;rounded=0;entryX=0.5;entryY=1;entryDx=0;entryDy=0;exitX=0;exitY=0.5;exitDx=0;exitDy=0;" edge="1" parent="1" source="t5KGoqvXRK17G3cKC2Aa-56" target="t5KGoqvXRK17G3cKC2Aa-52">
          <mxGeometry width="50" height="50" relative="1" as="geometry">
            <mxPoint x="1860" y="400" as="sourcePoint" />
            <mxPoint x="1910" y="350" as="targetPoint" />
          </mxGeometry>
        </mxCell>
        <mxCell id="t5KGoqvXRK17G3cKC2Aa-61" value="" style="endArrow=none;html=1;rounded=0;entryX=0.5;entryY=1;entryDx=0;entryDy=0;exitX=0;exitY=0.5;exitDx=0;exitDy=0;" edge="1" parent="1" source="t5KGoqvXRK17G3cKC2Aa-57" target="t5KGoqvXRK17G3cKC2Aa-53">
          <mxGeometry width="50" height="50" relative="1" as="geometry">
            <mxPoint x="1860" y="400" as="sourcePoint" />
            <mxPoint x="1910" y="350" as="targetPoint" />
          </mxGeometry>
        </mxCell>
        <mxCell id="t5KGoqvXRK17G3cKC2Aa-62" value="" style="endArrow=none;html=1;rounded=0;exitX=0;exitY=0.5;exitDx=0;exitDy=0;entryX=0.5;entryY=1;entryDx=0;entryDy=0;" edge="1" parent="1" source="t5KGoqvXRK17G3cKC2Aa-58" target="t5KGoqvXRK17G3cKC2Aa-54">
          <mxGeometry width="50" height="50" relative="1" as="geometry">
            <mxPoint x="1860" y="400" as="sourcePoint" />
            <mxPoint x="1910" y="350" as="targetPoint" />
          </mxGeometry>
        </mxCell>
        <mxCell id="t5KGoqvXRK17G3cKC2Aa-63" value="" style="endArrow=none;html=1;rounded=0;exitX=0;exitY=0.5;exitDx=0;exitDy=0;entryX=0.5;entryY=1;entryDx=0;entryDy=0;" edge="1" parent="1" source="t5KGoqvXRK17G3cKC2Aa-59" target="t5KGoqvXRK17G3cKC2Aa-55">
          <mxGeometry width="50" height="50" relative="1" as="geometry">
            <mxPoint x="1860" y="400" as="sourcePoint" />
            <mxPoint x="1910" y="350" as="targetPoint" />
          </mxGeometry>
        </mxCell>
        <mxCell id="t5KGoqvXRK17G3cKC2Aa-51" value="Fizikai pareméterek" style="ellipse;whiteSpace=wrap;html=1;" vertex="1" parent="1">
          <mxGeometry x="1800" y="320" width="120" height="80" as="geometry" />
        </mxCell>
        <mxCell id="t5KGoqvXRK17G3cKC2Aa-66" value="" style="endArrow=none;html=1;rounded=0;exitX=0.5;exitY=0;exitDx=0;exitDy=0;entryX=0.5;entryY=1;entryDx=0;entryDy=0;" edge="1" parent="1" source="t5KGoqvXRK17G3cKC2Aa-52" target="t5KGoqvXRK17G3cKC2Aa-51">
          <mxGeometry width="50" height="50" relative="1" as="geometry">
            <mxPoint x="1860" y="400" as="sourcePoint" />
            <mxPoint x="1910" y="350" as="targetPoint" />
          </mxGeometry>
        </mxCell>
        <mxCell id="t5KGoqvXRK17G3cKC2Aa-67" value="" style="endArrow=none;html=1;rounded=0;entryX=0.5;entryY=0;entryDx=0;entryDy=0;" edge="1" parent="1" target="t5KGoqvXRK17G3cKC2Aa-53">
          <mxGeometry width="50" height="50" relative="1" as="geometry">
            <mxPoint x="1860" y="400" as="sourcePoint" />
            <mxPoint x="1910" y="350" as="targetPoint" />
          </mxGeometry>
        </mxCell>
        <mxCell id="t5KGoqvXRK17G3cKC2Aa-68" value="" style="endArrow=none;html=1;rounded=0;entryX=0.5;entryY=0;entryDx=0;entryDy=0;" edge="1" parent="1" target="t5KGoqvXRK17G3cKC2Aa-54">
          <mxGeometry width="50" height="50" relative="1" as="geometry">
            <mxPoint x="1860" y="400" as="sourcePoint" />
            <mxPoint x="1910" y="350" as="targetPoint" />
          </mxGeometry>
        </mxCell>
        <mxCell id="t5KGoqvXRK17G3cKC2Aa-69" value="" style="endArrow=none;html=1;rounded=0;entryX=0.5;entryY=0;entryDx=0;entryDy=0;" edge="1" parent="1" target="t5KGoqvXRK17G3cKC2Aa-55">
          <mxGeometry width="50" height="50" relative="1" as="geometry">
            <mxPoint x="1860" y="400" as="sourcePoint" />
            <mxPoint x="1910" y="350" as="targetPoint" />
          </mxGeometry>
        </mxCell>
        <mxCell id="t5KGoqvXRK17G3cKC2Aa-70" value="" style="endArrow=none;html=1;rounded=0;entryX=0.5;entryY=1;entryDx=0;entryDy=0;exitX=0.5;exitY=0;exitDx=0;exitDy=0;" edge="1" parent="1" source="t5KGoqvXRK17G3cKC2Aa-50" target="t5KGoqvXRK17G3cKC2Aa-49">
          <mxGeometry width="50" height="50" relative="1" as="geometry">
            <mxPoint x="1800" y="400" as="sourcePoint" />
            <mxPoint x="1850" y="350" as="targetPoint" />
          </mxGeometry>
        </mxCell>
        <mxCell id="t5KGoqvXRK17G3cKC2Aa-71" value="" style="endArrow=none;html=1;rounded=0;entryX=0.5;entryY=1;entryDx=0;entryDy=0;exitX=0.5;exitY=0;exitDx=0;exitDy=0;" edge="1" parent="1" source="t5KGoqvXRK17G3cKC2Aa-51" target="t5KGoqvXRK17G3cKC2Aa-49">
          <mxGeometry width="50" height="50" relative="1" as="geometry">
            <mxPoint x="1800" y="400" as="sourcePoint" />
            <mxPoint x="1850" y="350" as="targetPoint" />
          </mxGeometry>
        </mxCell>
        <mxCell id="t5KGoqvXRK17G3cKC2Aa-72" value="Repülő" style="ellipse;whiteSpace=wrap;html=1;fillColor=#dae8fc;strokeColor=#6c8ebf;" vertex="1" parent="1">
          <mxGeometry x="-250" y="180" width="120" height="80" as="geometry" />
        </mxCell>
        <mxCell id="t5KGoqvXRK17G3cKC2Aa-73" value="FID" style="rhombus;whiteSpace=wrap;html=1;fontStyle=4" vertex="1" parent="1">
          <mxGeometry x="1600" y="320" width="80" height="80" as="geometry" />
        </mxCell>
        <mxCell id="t5KGoqvXRK17G3cKC2Aa-74" value="" style="endArrow=none;html=1;rounded=0;entryX=0.5;entryY=1;entryDx=0;entryDy=0;exitX=0.5;exitY=0;exitDx=0;exitDy=0;" edge="1" parent="1" source="t5KGoqvXRK17G3cKC2Aa-73" target="t5KGoqvXRK17G3cKC2Aa-49">
          <mxGeometry width="50" height="50" relative="1" as="geometry">
            <mxPoint x="1450" y="400" as="sourcePoint" />
            <mxPoint x="1500" y="350" as="targetPoint" />
          </mxGeometry>
        </mxCell>
        <mxCell id="t5KGoqvXRK17G3cKC2Aa-75" value="" style="endArrow=classic;html=1;rounded=0;exitX=0;exitY=0.5;exitDx=0;exitDy=0;entryX=1;entryY=0.5;entryDx=0;entryDy=0;dashed=1;" edge="1" parent="1" source="t5KGoqvXRK17G3cKC2Aa-73" target="t5KGoqvXRK17G3cKC2Aa-44">
          <mxGeometry width="50" height="50" relative="1" as="geometry">
            <mxPoint x="1430" y="400" as="sourcePoint" />
            <mxPoint x="1530" y="510" as="targetPoint" />
            <Array as="points">
              <mxPoint x="1600" y="560" />
              <mxPoint x="1110" y="560" />
            </Array>
          </mxGeometry>
        </mxCell>
        <mxCell id="t5KGoqvXRK17G3cKC2Aa-76" value="" style="endArrow=classic;html=1;rounded=0;exitX=1;exitY=0.5;exitDx=0;exitDy=0;entryX=0;entryY=0.5;entryDx=0;entryDy=0;dashed=1;" edge="1" parent="1" source="t5KGoqvXRK17G3cKC2Aa-29" target="t5KGoqvXRK17G3cKC2Aa-44">
          <mxGeometry width="50" height="50" relative="1" as="geometry">
            <mxPoint x="1040" y="400" as="sourcePoint" />
            <mxPoint x="1090" y="350" as="targetPoint" />
          </mxGeometry>
        </mxCell>
        <mxCell id="t5KGoqvXRK17G3cKC2Aa-77" value="" style="endArrow=classic;html=1;rounded=0;exitX=0.5;exitY=1;exitDx=0;exitDy=0;entryX=0.5;entryY=1;entryDx=0;entryDy=0;dashed=1;" edge="1" parent="1" source="t5KGoqvXRK17G3cKC2Aa-28" target="t5KGoqvXRK17G3cKC2Aa-44">
          <mxGeometry width="50" height="50" relative="1" as="geometry">
            <mxPoint x="1040" y="400" as="sourcePoint" />
            <mxPoint x="1090" y="350" as="targetPoint" />
            <Array as="points">
              <mxPoint x="860" y="440" />
              <mxPoint x="1070" y="440" />
            </Array>
          </mxGeometry>
        </mxCell>
        <mxCell id="t5KGoqvXRK17G3cKC2Aa-78" value="" style="endArrow=classic;html=1;rounded=0;entryX=0.5;entryY=1;entryDx=0;entryDy=0;exitX=0.5;exitY=1;exitDx=0;exitDy=0;dashed=1;" edge="1" parent="1" source="t5KGoqvXRK17G3cKC2Aa-32" target="t5KGoqvXRK17G3cKC2Aa-16">
          <mxGeometry width="50" height="50" relative="1" as="geometry">
            <mxPoint x="540" y="400" as="sourcePoint" />
            <mxPoint x="590" y="350" as="targetPoint" />
            <Array as="points">
              <mxPoint x="760" y="560" />
              <mxPoint x="220" y="560" />
            </Array>
          </mxGeometry>
        </mxCell>
        <mxCell id="t5KGoqvXRK17G3cKC2Aa-79" value="Gyártó" style="ellipse;whiteSpace=wrap;html=1;" vertex="1" parent="1">
          <mxGeometry x="-250" y="320" width="120" height="80" as="geometry" />
        </mxCell>
        <mxCell id="t5KGoqvXRK17G3cKC2Aa-80" value="Típus" style="ellipse;whiteSpace=wrap;html=1;" vertex="1" parent="1">
          <mxGeometry x="-120" y="320" width="120" height="80" as="geometry" />
        </mxCell>
        <mxCell id="t5KGoqvXRK17G3cKC2Aa-81" value="" style="ellipse;whiteSpace=wrap;html=1;" vertex="1" parent="1">
          <mxGeometry x="10" y="320" width="120" height="80" as="geometry" />
        </mxCell>
        <mxCell id="t5KGoqvXRK17G3cKC2Aa-83" value="&lt;u&gt;Kapitány&lt;/u&gt;" style="rhombus;whiteSpace=wrap;html=1;" vertex="1" parent="1">
          <mxGeometry x="-470" y="320" width="80" height="80" as="geometry" />
        </mxCell>
        <mxCell id="t5KGoqvXRK17G3cKC2Aa-85" value="" style="rounded=0;whiteSpace=wrap;html=1;direction=south;" vertex="1" parent="1">
          <mxGeometry x="-220" y="420" width="60" height="120" as="geometry" />
        </mxCell>
        <mxCell id="t5KGoqvXRK17G3cKC2Aa-86" value="" style="rounded=0;whiteSpace=wrap;html=1;direction=south;" vertex="1" parent="1">
          <mxGeometry x="-90" y="420" width="60" height="120" as="geometry" />
        </mxCell>
        <mxCell id="t5KGoqvXRK17G3cKC2Aa-87" value="" style="rounded=0;whiteSpace=wrap;html=1;direction=south;" vertex="1" parent="1">
          <mxGeometry x="40" y="420" width="60" height="120" as="geometry" />
        </mxCell>
        <mxCell id="t5KGoqvXRK17G3cKC2Aa-89" value="" style="endArrow=none;html=1;rounded=0;entryX=0.5;entryY=1;entryDx=0;entryDy=0;exitX=0;exitY=0.5;exitDx=0;exitDy=0;" edge="1" parent="1" source="t5KGoqvXRK17G3cKC2Aa-85" target="t5KGoqvXRK17G3cKC2Aa-79">
          <mxGeometry width="50" height="50" relative="1" as="geometry">
            <mxPoint x="-230" y="400" as="sourcePoint" />
            <mxPoint x="-180" y="350" as="targetPoint" />
          </mxGeometry>
        </mxCell>
        <mxCell id="t5KGoqvXRK17G3cKC2Aa-90" value="" style="endArrow=none;html=1;rounded=0;entryX=0.5;entryY=1;entryDx=0;entryDy=0;exitX=0;exitY=0.5;exitDx=0;exitDy=0;" edge="1" parent="1" source="t5KGoqvXRK17G3cKC2Aa-86" target="t5KGoqvXRK17G3cKC2Aa-80">
          <mxGeometry width="50" height="50" relative="1" as="geometry">
            <mxPoint x="-230" y="400" as="sourcePoint" />
            <mxPoint x="-180" y="350" as="targetPoint" />
          </mxGeometry>
        </mxCell>
        <mxCell id="t5KGoqvXRK17G3cKC2Aa-91" value="" style="endArrow=none;html=1;rounded=0;entryX=0.5;entryY=1;entryDx=0;entryDy=0;exitX=0;exitY=0.5;exitDx=0;exitDy=0;" edge="1" parent="1" source="t5KGoqvXRK17G3cKC2Aa-87" target="t5KGoqvXRK17G3cKC2Aa-81">
          <mxGeometry width="50" height="50" relative="1" as="geometry">
            <mxPoint x="-230" y="400" as="sourcePoint" />
            <mxPoint x="-180" y="350" as="targetPoint" />
          </mxGeometry>
        </mxCell>
        <mxCell id="t5KGoqvXRK17G3cKC2Aa-92" value="" style="endArrow=none;html=1;rounded=0;entryX=0.5;entryY=1;entryDx=0;entryDy=0;exitX=0.5;exitY=0;exitDx=0;exitDy=0;" edge="1" parent="1" source="t5KGoqvXRK17G3cKC2Aa-83" target="t5KGoqvXRK17G3cKC2Aa-72">
          <mxGeometry width="50" height="50" relative="1" as="geometry">
            <mxPoint x="-230" y="400" as="sourcePoint" />
            <mxPoint x="-180" y="350" as="targetPoint" />
          </mxGeometry>
        </mxCell>
        <mxCell id="t5KGoqvXRK17G3cKC2Aa-93" value="" style="endArrow=none;html=1;rounded=0;entryX=0.5;entryY=1;entryDx=0;entryDy=0;exitX=0.5;exitY=0;exitDx=0;exitDy=0;" edge="1" parent="1" target="t5KGoqvXRK17G3cKC2Aa-72">
          <mxGeometry width="50" height="50" relative="1" as="geometry">
            <mxPoint x="-320" y="320" as="sourcePoint" />
            <mxPoint x="-180" y="350" as="targetPoint" />
          </mxGeometry>
        </mxCell>
        <mxCell id="t5KGoqvXRK17G3cKC2Aa-94" value="" style="endArrow=none;html=1;rounded=0;entryX=0.5;entryY=1;entryDx=0;entryDy=0;exitX=0.5;exitY=0;exitDx=0;exitDy=0;" edge="1" parent="1" source="t5KGoqvXRK17G3cKC2Aa-79" target="t5KGoqvXRK17G3cKC2Aa-72">
          <mxGeometry width="50" height="50" relative="1" as="geometry">
            <mxPoint x="-230" y="400" as="sourcePoint" />
            <mxPoint x="-180" y="350" as="targetPoint" />
          </mxGeometry>
        </mxCell>
        <mxCell id="t5KGoqvXRK17G3cKC2Aa-95" value="" style="endArrow=none;html=1;rounded=0;entryX=0.5;entryY=1;entryDx=0;entryDy=0;exitX=0.5;exitY=0;exitDx=0;exitDy=0;" edge="1" parent="1" source="t5KGoqvXRK17G3cKC2Aa-80" target="t5KGoqvXRK17G3cKC2Aa-72">
          <mxGeometry width="50" height="50" relative="1" as="geometry">
            <mxPoint x="-230" y="400" as="sourcePoint" />
            <mxPoint x="-180" y="350" as="targetPoint" />
          </mxGeometry>
        </mxCell>
        <mxCell id="t5KGoqvXRK17G3cKC2Aa-96" value="" style="endArrow=none;html=1;rounded=0;entryX=0.5;entryY=1;entryDx=0;entryDy=0;exitX=0.5;exitY=0;exitDx=0;exitDy=0;" edge="1" parent="1" source="t5KGoqvXRK17G3cKC2Aa-81" target="t5KGoqvXRK17G3cKC2Aa-72">
          <mxGeometry width="50" height="50" relative="1" as="geometry">
            <mxPoint x="-230" y="400" as="sourcePoint" />
            <mxPoint x="-180" y="350" as="targetPoint" />
          </mxGeometry>
        </mxCell>
        <mxCell id="t5KGoqvXRK17G3cKC2Aa-97" value="&lt;u&gt;Hívójel&lt;/u&gt;" style="rhombus;whiteSpace=wrap;html=1;" vertex="1" parent="1">
          <mxGeometry x="-360" y="320" width="80" height="80" as="geometry" />
        </mxCell>
        <mxCell id="t5KGoqvXRK17G3cKC2Aa-98" value="Kapitány" style="ellipse;whiteSpace=wrap;html=1;fillColor=#dae8fc;strokeColor=#6c8ebf;" vertex="1" parent="1">
          <mxGeometry x="-870" y="180" width="120" height="80" as="geometry" />
        </mxCell>
        <mxCell id="t5KGoqvXRK17G3cKC2Aa-99" value="Vezetéknév" style="ellipse;whiteSpace=wrap;html=1;" vertex="1" parent="1">
          <mxGeometry x="-930" y="320" width="120" height="80" as="geometry" />
        </mxCell>
        <mxCell id="t5KGoqvXRK17G3cKC2Aa-100" value="Utónév" style="ellipse;whiteSpace=wrap;html=1;" vertex="1" parent="1">
          <mxGeometry x="-800" y="320" width="120" height="80" as="geometry" />
        </mxCell>
        <mxCell id="t5KGoqvXRK17G3cKC2Aa-101" value="Repült órák száma" style="ellipse;whiteSpace=wrap;html=1;" vertex="1" parent="1">
          <mxGeometry x="-670" y="320" width="120" height="80" as="geometry" />
        </mxCell>
        <mxCell id="t5KGoqvXRK17G3cKC2Aa-103" value="" style="rounded=0;whiteSpace=wrap;html=1;direction=south;" vertex="1" parent="1">
          <mxGeometry x="-900" y="420" width="60" height="120" as="geometry" />
        </mxCell>
        <mxCell id="t5KGoqvXRK17G3cKC2Aa-104" value="" style="rounded=0;whiteSpace=wrap;html=1;direction=south;" vertex="1" parent="1">
          <mxGeometry x="-770" y="420" width="60" height="120" as="geometry" />
        </mxCell>
        <mxCell id="t5KGoqvXRK17G3cKC2Aa-105" value="" style="rounded=0;whiteSpace=wrap;html=1;direction=south;" vertex="1" parent="1">
          <mxGeometry x="-640" y="420" width="60" height="120" as="geometry" />
        </mxCell>
        <mxCell id="t5KGoqvXRK17G3cKC2Aa-106" value="" style="endArrow=none;html=1;rounded=0;entryX=0.5;entryY=1;entryDx=0;entryDy=0;exitX=0;exitY=0.5;exitDx=0;exitDy=0;" edge="1" parent="1" source="t5KGoqvXRK17G3cKC2Aa-103" target="t5KGoqvXRK17G3cKC2Aa-99">
          <mxGeometry width="50" height="50" relative="1" as="geometry">
            <mxPoint x="-910" y="400" as="sourcePoint" />
            <mxPoint x="-860" y="350" as="targetPoint" />
          </mxGeometry>
        </mxCell>
        <mxCell id="t5KGoqvXRK17G3cKC2Aa-107" value="" style="endArrow=none;html=1;rounded=0;entryX=0.5;entryY=1;entryDx=0;entryDy=0;exitX=0;exitY=0.5;exitDx=0;exitDy=0;" edge="1" parent="1" source="t5KGoqvXRK17G3cKC2Aa-104" target="t5KGoqvXRK17G3cKC2Aa-100">
          <mxGeometry width="50" height="50" relative="1" as="geometry">
            <mxPoint x="-910" y="400" as="sourcePoint" />
            <mxPoint x="-860" y="350" as="targetPoint" />
          </mxGeometry>
        </mxCell>
        <mxCell id="t5KGoqvXRK17G3cKC2Aa-108" value="" style="endArrow=none;html=1;rounded=0;entryX=0.5;entryY=1;entryDx=0;entryDy=0;exitX=0;exitY=0.5;exitDx=0;exitDy=0;" edge="1" parent="1" source="t5KGoqvXRK17G3cKC2Aa-105" target="t5KGoqvXRK17G3cKC2Aa-101">
          <mxGeometry width="50" height="50" relative="1" as="geometry">
            <mxPoint x="-910" y="400" as="sourcePoint" />
            <mxPoint x="-860" y="350" as="targetPoint" />
          </mxGeometry>
        </mxCell>
        <mxCell id="t5KGoqvXRK17G3cKC2Aa-110" value="" style="endArrow=none;html=1;rounded=0;entryX=0.5;entryY=1;entryDx=0;entryDy=0;exitX=0.5;exitY=0;exitDx=0;exitDy=0;" edge="1" parent="1" target="t5KGoqvXRK17G3cKC2Aa-98" source="t5KGoqvXRK17G3cKC2Aa-114">
          <mxGeometry width="50" height="50" relative="1" as="geometry">
            <mxPoint x="-940" y="320" as="sourcePoint" />
            <mxPoint x="-800" y="350" as="targetPoint" />
          </mxGeometry>
        </mxCell>
        <mxCell id="t5KGoqvXRK17G3cKC2Aa-111" value="" style="endArrow=none;html=1;rounded=0;entryX=0.5;entryY=1;entryDx=0;entryDy=0;exitX=0.5;exitY=0;exitDx=0;exitDy=0;" edge="1" parent="1" source="t5KGoqvXRK17G3cKC2Aa-99" target="t5KGoqvXRK17G3cKC2Aa-98">
          <mxGeometry width="50" height="50" relative="1" as="geometry">
            <mxPoint x="-850" y="400" as="sourcePoint" />
            <mxPoint x="-800" y="350" as="targetPoint" />
          </mxGeometry>
        </mxCell>
        <mxCell id="t5KGoqvXRK17G3cKC2Aa-112" value="" style="endArrow=none;html=1;rounded=0;entryX=0.5;entryY=1;entryDx=0;entryDy=0;exitX=0.5;exitY=0;exitDx=0;exitDy=0;" edge="1" parent="1" source="t5KGoqvXRK17G3cKC2Aa-100" target="t5KGoqvXRK17G3cKC2Aa-98">
          <mxGeometry width="50" height="50" relative="1" as="geometry">
            <mxPoint x="-850" y="400" as="sourcePoint" />
            <mxPoint x="-800" y="350" as="targetPoint" />
          </mxGeometry>
        </mxCell>
        <mxCell id="t5KGoqvXRK17G3cKC2Aa-113" value="" style="endArrow=none;html=1;rounded=0;entryX=0.5;entryY=1;entryDx=0;entryDy=0;exitX=0.5;exitY=0;exitDx=0;exitDy=0;" edge="1" parent="1" source="t5KGoqvXRK17G3cKC2Aa-101" target="t5KGoqvXRK17G3cKC2Aa-98">
          <mxGeometry width="50" height="50" relative="1" as="geometry">
            <mxPoint x="-850" y="400" as="sourcePoint" />
            <mxPoint x="-800" y="350" as="targetPoint" />
          </mxGeometry>
        </mxCell>
        <mxCell id="t5KGoqvXRK17G3cKC2Aa-114" value="&lt;u&gt;Személyi azonosító&lt;/u&gt;" style="rhombus;whiteSpace=wrap;html=1;" vertex="1" parent="1">
          <mxGeometry x="-1040" y="320" width="80" height="80" as="geometry" />
        </mxCell>
        <mxCell id="t5KGoqvXRK17G3cKC2Aa-115" value="Szín" style="ellipse;whiteSpace=wrap;html=1;" vertex="1" parent="1">
          <mxGeometry x="15" y="325" width="110" height="70" as="geometry" />
        </mxCell>
        <mxCell id="t5KGoqvXRK17G3cKC2Aa-116" value="" style="endArrow=classic;html=1;rounded=0;exitX=0;exitY=1;exitDx=0;exitDy=0;entryX=0.5;entryY=1;entryDx=0;entryDy=0;dashed=1;" edge="1" parent="1" source="t5KGoqvXRK17G3cKC2Aa-16" target="t5KGoqvXRK17G3cKC2Aa-97">
          <mxGeometry width="50" height="50" relative="1" as="geometry">
            <mxPoint x="-220" y="400" as="sourcePoint" />
            <mxPoint x="-170" y="350" as="targetPoint" />
            <Array as="points">
              <mxPoint x="200" y="560" />
              <mxPoint x="-320" y="560" />
            </Array>
          </mxGeometry>
        </mxCell>
        <mxCell id="t5KGoqvXRK17G3cKC2Aa-117" value="" style="endArrow=classic;html=1;rounded=0;exitX=0.5;exitY=1;exitDx=0;exitDy=0;entryX=0.5;entryY=1;entryDx=0;entryDy=0;dashed=1;" edge="1" parent="1" source="t5KGoqvXRK17G3cKC2Aa-83" target="t5KGoqvXRK17G3cKC2Aa-114">
          <mxGeometry width="50" height="50" relative="1" as="geometry">
            <mxPoint x="-680" y="400" as="sourcePoint" />
            <mxPoint x="-630" y="350" as="targetPoint" />
            <Array as="points">
              <mxPoint x="-430" y="560" />
              <mxPoint x="-1000" y="560" />
            </Array>
          </mxGeometry>
        </mxCell>
        <mxCell id="t5KGoqvXRK17G3cKC2Aa-118" value="" style="endArrow=none;html=1;rounded=0;entryX=0.5;entryY=1;entryDx=0;entryDy=0;exitX=0.5;exitY=0;exitDx=0;exitDy=0;" edge="1" parent="1" source="t5KGoqvXRK17G3cKC2Aa-2" target="t5KGoqvXRK17G3cKC2Aa-1">
          <mxGeometry width="50" height="50" relative="1" as="geometry">
            <mxPoint x="210" y="400" as="sourcePoint" />
            <mxPoint x="260" y="350" as="targetPoint" />
          </mxGeometry>
        </mxCell>
        <mxCell id="t5KGoqvXRK17G3cKC2Aa-119" value="" style="endArrow=none;html=1;rounded=0;entryX=0.5;entryY=1;entryDx=0;entryDy=0;exitX=0.5;exitY=0;exitDx=0;exitDy=0;" edge="1" parent="1" source="t5KGoqvXRK17G3cKC2Aa-72" target="t5KGoqvXRK17G3cKC2Aa-1">
          <mxGeometry width="50" height="50" relative="1" as="geometry">
            <mxPoint x="-40" y="400" as="sourcePoint" />
            <mxPoint x="10" y="350" as="targetPoint" />
          </mxGeometry>
        </mxCell>
        <mxCell id="t5KGoqvXRK17G3cKC2Aa-120" value="" style="endArrow=none;html=1;rounded=0;exitX=0.5;exitY=0;exitDx=0;exitDy=0;entryX=0.5;entryY=1;entryDx=0;entryDy=0;" edge="1" parent="1" source="t5KGoqvXRK17G3cKC2Aa-98" target="t5KGoqvXRK17G3cKC2Aa-1">
          <mxGeometry width="50" height="50" relative="1" as="geometry">
            <mxPoint x="-490" y="400" as="sourcePoint" />
            <mxPoint x="-440" y="350" as="targetPoint" />
          </mxGeometry>
        </mxCell>
        <mxCell id="t5KGoqvXRK17G3cKC2Aa-121" value="" style="endArrow=none;html=1;rounded=0;entryX=0.5;entryY=1;entryDx=0;entryDy=0;exitX=0.5;exitY=0;exitDx=0;exitDy=0;" edge="1" parent="1" source="t5KGoqvXRK17G3cKC2Aa-21" target="t5KGoqvXRK17G3cKC2Aa-1">
          <mxGeometry width="50" height="50" relative="1" as="geometry">
            <mxPoint x="610" y="400" as="sourcePoint" />
            <mxPoint x="660" y="350" as="targetPoint" />
          </mxGeometry>
        </mxCell>
        <mxCell id="t5KGoqvXRK17G3cKC2Aa-122" value="" style="endArrow=none;html=1;rounded=0;entryX=0.5;entryY=1;entryDx=0;entryDy=0;exitX=0.5;exitY=0;exitDx=0;exitDy=0;" edge="1" parent="1" source="t5KGoqvXRK17G3cKC2Aa-34" target="t5KGoqvXRK17G3cKC2Aa-1">
          <mxGeometry width="50" height="50" relative="1" as="geometry">
            <mxPoint x="610" y="400" as="sourcePoint" />
            <mxPoint x="660" y="350" as="targetPoint" />
          </mxGeometry>
        </mxCell>
        <mxCell id="t5KGoqvXRK17G3cKC2Aa-123" value="" style="endArrow=none;html=1;rounded=0;entryX=0.5;entryY=1;entryDx=0;entryDy=0;exitX=0.5;exitY=0;exitDx=0;exitDy=0;" edge="1" parent="1" source="t5KGoqvXRK17G3cKC2Aa-49" target="t5KGoqvXRK17G3cKC2Aa-1">
          <mxGeometry width="50" height="50" relative="1" as="geometry">
            <mxPoint x="870" y="400" as="sourcePoint" />
            <mxPoint x="920" y="350" as="targetPoint" />
          </mxGeometry>
        </mxCell>
      </root>
    </mxGraphModel>
  </diagram>
</mxfile>
